<?xml version="1.0" encoding="UTF-8"?>
<svg xmlns="http://www.w3.org/2000/svg" width="270" height="130" viewBox="0 0 270 130" fill="none">
  <g clip-path="url(#clip0_1592_327)">
    <mask id="mask0_1592_327" style="mask-type:luminance" maskUnits="userSpaceOnUse" x="-1" y="-1" width="271" height="131">
      <path d="M269.922 -0.09375H-0.078125V129.906H269.922V-0.09375Z" fill="white"></path>
    </mask>
    <g mask="url(#mask0_1592_327)">
      <mask id="path-2-outside-1_1592_327" maskUnits="userSpaceOnUse" x="-0.355469" y="-0.371094" width="270" height="131" fill="black">
        <rect fill="white" x="-0.355469" y="-0.371094" width="270" height="131"></rect>
        <path d="M134.077 100.334L134.314 100.186C134.273 100.121 134.208 100.076 134.132 100.06C134.057 100.045 133.979 100.062 133.916 100.106L134.077 100.334ZM248.283 74.2543L248.28 73.9755C248.138 73.9773 248.021 74.0846 248.006 74.2251L248.283 74.2543ZM238.857 34.2607L238.623 34.4114C238.699 34.5301 238.852 34.5732 238.979 34.5117L238.857 34.2607ZM145.352 21.5581L145.134 21.7318C145.182 21.7918 145.253 21.8294 145.329 21.8358C145.406 21.8422 145.481 21.8168 145.539 21.7656L145.352 21.5581ZM50.9886 37.2221L50.8599 37.4695C50.9314 37.5067 51.0155 37.5112 51.0905 37.4817C51.1654 37.4523 51.224 37.3917 51.2511 37.3159L50.9886 37.2221ZM60.5467 90.7092L60.7606 90.5303C60.7089 90.4685 60.6331 90.4321 60.5526 90.4305C60.4721 90.4288 60.3948 90.4619 60.3406 90.5214L60.5467 90.7092ZM133.916 100.106C125.047 106.375 114.22 110.058 102.532 110.058V110.616C114.339 110.616 125.278 106.895 134.238 100.561L133.916 100.106ZM186.699 129.316C164.588 129.316 145.194 117.675 134.314 100.186L133.84 100.481C144.818 118.126 164.387 129.873 186.699 129.873V129.316ZM248.006 74.2251C244.731 105.189 218.532 129.316 186.699 129.316V129.873C218.821 129.873 245.256 105.528 248.56 74.2837L248.006 74.2251ZM268.784 53.2118C268.784 64.5929 259.627 73.8356 248.28 73.9755L248.286 74.5331C259.939 74.3894 269.341 64.8986 269.341 53.2118H268.784ZM248.018 32.4464C259.487 32.4464 268.784 41.7434 268.784 53.2118H269.341C269.341 41.4354 259.795 31.8888 248.018 31.8888V32.4464ZM238.979 34.5117C241.711 33.1885 244.778 32.4464 248.018 32.4464V31.8888C244.692 31.8888 241.542 32.6507 238.736 34.0098L238.979 34.5117ZM186.699 6.01352C208.501 6.01352 227.661 17.3302 238.623 34.4114L239.092 34.1102C228.032 16.876 208.699 5.456 186.699 5.456V6.01352ZM145.539 21.7656C156.453 11.9712 170.88 6.01352 186.699 6.01352V5.456C170.737 5.456 156.179 11.4679 145.166 21.3505L145.539 21.7656ZM102.532 1.18643C119.784 1.18643 135.16 9.21081 145.134 21.7318L145.57 21.3843C135.495 8.73635 119.96 0.628906 102.532 0.628906V1.18643ZM51.2511 37.3159C58.7695 16.2569 78.8915 1.18643 102.532 1.18643V0.628906C78.6484 0.628906 58.3212 15.8545 50.726 37.1284L51.2511 37.3159ZM35.1953 33.653C40.8452 33.653 46.1725 35.0313 50.8599 37.4695L51.1172 36.9748C46.3522 34.4962 40.9369 33.0956 35.1953 33.0956V33.653ZM1.20206 67.6463C1.20206 48.8723 16.4214 33.653 35.1953 33.653V33.0956C16.1134 33.0956 0.644531 48.5644 0.644531 67.6463H1.20206ZM35.1953 101.639C16.4214 101.639 1.20206 86.4202 1.20206 67.6463H0.644531C0.644531 86.7281 16.1134 102.196 35.1953 102.196V101.639ZM60.3406 90.5214C54.1226 97.3525 45.1598 101.639 35.1953 101.639V102.196C45.3232 102.196 54.4337 97.8391 60.7529 90.8968L60.3406 90.5214ZM102.532 110.058C85.7529 110.058 70.7466 102.467 60.7606 90.5303L60.3329 90.8879C70.4204 102.945 85.5809 110.616 102.532 110.616V110.058Z"></path>
      </mask>
      <path d="M134.077 100.334L134.314 100.186C134.273 100.121 134.208 100.076 134.132 100.06C134.057 100.045 133.979 100.062 133.916 100.106L134.077 100.334ZM248.283 74.2543L248.28 73.9755C248.138 73.9773 248.021 74.0846 248.006 74.2251L248.283 74.2543ZM238.857 34.2607L238.623 34.4114C238.699 34.5301 238.852 34.5732 238.979 34.5117L238.857 34.2607ZM145.352 21.5581L145.134 21.7318C145.182 21.7918 145.253 21.8294 145.329 21.8358C145.406 21.8422 145.481 21.8168 145.539 21.7656L145.352 21.5581ZM50.9886 37.2221L50.8599 37.4695C50.9314 37.5067 51.0155 37.5112 51.0905 37.4817C51.1654 37.4523 51.224 37.3917 51.2511 37.3159L50.9886 37.2221ZM60.5467 90.7092L60.7606 90.5303C60.7089 90.4685 60.6331 90.4321 60.5526 90.4305C60.4721 90.4288 60.3948 90.4619 60.3406 90.5214L60.5467 90.7092ZM133.916 100.106C125.047 106.375 114.22 110.058 102.532 110.058V110.616C114.339 110.616 125.278 106.895 134.238 100.561L133.916 100.106ZM186.699 129.316C164.588 129.316 145.194 117.675 134.314 100.186L133.84 100.481C144.818 118.126 164.387 129.873 186.699 129.873V129.316ZM248.006 74.2251C244.731 105.189 218.532 129.316 186.699 129.316V129.873C218.821 129.873 245.256 105.528 248.56 74.2837L248.006 74.2251ZM268.784 53.2118C268.784 64.5929 259.627 73.8356 248.28 73.9755L248.286 74.5331C259.939 74.3894 269.341 64.8986 269.341 53.2118H268.784ZM248.018 32.4464C259.487 32.4464 268.784 41.7434 268.784 53.2118H269.341C269.341 41.4354 259.795 31.8888 248.018 31.8888V32.4464ZM238.979 34.5117C241.711 33.1885 244.778 32.4464 248.018 32.4464V31.8888C244.692 31.8888 241.542 32.6507 238.736 34.0098L238.979 34.5117ZM186.699 6.01352C208.501 6.01352 227.661 17.3302 238.623 34.4114L239.092 34.1102C228.032 16.876 208.699 5.456 186.699 5.456V6.01352ZM145.539 21.7656C156.453 11.9712 170.88 6.01352 186.699 6.01352V5.456C170.737 5.456 156.179 11.4679 145.166 21.3505L145.539 21.7656ZM102.532 1.18643C119.784 1.18643 135.16 9.21081 145.134 21.7318L145.57 21.3843C135.495 8.73635 119.96 0.628906 102.532 0.628906V1.18643ZM51.2511 37.3159C58.7695 16.2569 78.8915 1.18643 102.532 1.18643V0.628906C78.6484 0.628906 58.3212 15.8545 50.726 37.1284L51.2511 37.3159ZM35.1953 33.653C40.8452 33.653 46.1725 35.0313 50.8599 37.4695L51.1172 36.9748C46.3522 34.4962 40.9369 33.0956 35.1953 33.0956V33.653ZM1.20206 67.6463C1.20206 48.8723 16.4214 33.653 35.1953 33.653V33.0956C16.1134 33.0956 0.644531 48.5644 0.644531 67.6463H1.20206ZM35.1953 101.639C16.4214 101.639 1.20206 86.4202 1.20206 67.6463H0.644531C0.644531 86.7281 16.1134 102.196 35.1953 102.196V101.639ZM60.3406 90.5214C54.1226 97.3525 45.1598 101.639 35.1953 101.639V102.196C45.3232 102.196 54.4337 97.8391 60.7529 90.8968L60.3406 90.5214ZM102.532 110.058C85.7529 110.058 70.7466 102.467 60.7606 90.5303L60.3329 90.8879C70.4204 102.945 85.5809 110.616 102.532 110.616V110.058Z" fill="#030001"></path>
      <path d="M102.447 110.058V110.616H102.617V110.058H102.447ZM186.784 129.873V129.316H186.614V129.873H186.784ZM269.341 53.1268H268.784V53.2968H269.341V53.1268ZM247.933 31.8888V32.4464H248.103V31.8888H247.933ZM186.614 5.456V6.01352H186.784V5.456H186.614ZM102.447 0.628906V1.18643H102.617V0.628906H102.447ZM35.1103 33.0956V33.653H35.2803V33.0956H35.1103ZM0.644531 67.7313H1.20206V67.5613H0.644531V67.7313ZM35.2803 102.196V101.639H35.1103V102.196H35.2803ZM134.077 100.334L133.938 100.432L134.031 100.564L134.167 100.478L134.077 100.334ZM134.314 100.186L134.458 100.096L134.458 100.096L134.314 100.186ZM134.132 100.06L134.167 99.8939L134.165 99.8936L134.132 100.06ZM133.916 100.106L133.819 99.9669L133.818 99.9674L133.916 100.106ZM248.283 74.2543L248.265 74.4234L248.455 74.4435L248.453 74.2525L248.283 74.2543ZM248.28 73.9755L248.278 73.8056L248.278 73.8056L248.28 73.9755ZM248.006 74.2251L247.837 74.207L247.837 74.2072L248.006 74.2251ZM238.857 34.2607L239.01 34.1864L238.926 34.0141L238.765 34.1178L238.857 34.2607ZM238.979 34.5117L239.053 34.6647L239.053 34.6646L238.979 34.5117ZM145.352 21.5581L145.478 21.4442L145.371 21.3254L145.246 21.4251L145.352 21.5581ZM145.134 21.7318L145.001 21.8377L145.001 21.8379L145.134 21.7318ZM145.329 21.8358L145.315 22.0053L145.315 22.0053L145.329 21.8358ZM145.539 21.7656L145.651 21.893L145.652 21.8921L145.539 21.7656ZM50.9886 37.2221L51.0458 37.0621L50.9062 37.0122L50.8378 37.1437L50.9886 37.2221ZM51.0905 37.4817L51.0284 37.3234L51.0282 37.3234L51.0905 37.4817ZM51.2511 37.3159L51.4112 37.3732L51.4112 37.3731L51.2511 37.3159ZM60.5467 90.7092L60.4322 90.8348L60.5419 90.9348L60.6557 90.8396L60.5467 90.7092ZM60.7606 90.5303L60.891 90.4212L60.891 90.4212L60.7606 90.5303ZM60.5526 90.4305L60.549 90.6004L60.5492 90.6004L60.5526 90.4305ZM60.3406 90.5214L60.2149 90.407L60.2149 90.407L60.3406 90.5214ZM134.238 100.561L134.336 100.7L134.475 100.602L134.377 100.463L134.238 100.561ZM133.84 100.481L133.75 100.337L133.606 100.427L133.696 100.571L133.84 100.481ZM248.56 74.2837L248.729 74.3015L248.747 74.1325L248.578 74.1146L248.56 74.2837ZM248.286 74.5331L248.116 74.5349L248.118 74.7051L248.288 74.703L248.286 74.5331ZM238.736 34.0098L238.662 33.8569L238.509 33.931L238.583 34.0839L238.736 34.0098ZM239.092 34.1102L239.184 34.2533L239.327 34.1615L239.235 34.0184L239.092 34.1102ZM145.166 21.3505L145.052 21.224L144.926 21.3377L145.039 21.4642L145.166 21.3505ZM145.57 21.3843L145.676 21.5173L145.809 21.4114L145.703 21.2784L145.57 21.3843ZM50.726 37.1284L50.5659 37.0713L50.5087 37.2314L50.6688 37.2885L50.726 37.1284ZM51.1172 36.9748L51.268 37.0533L51.3464 36.9025L51.1956 36.824L51.1172 36.9748ZM60.7529 90.8968L60.8786 91.0112L60.993 90.8855L60.8673 90.771L60.7529 90.8968ZM60.3329 90.8879L60.2238 90.7575L60.0934 90.8666L60.2025 90.997L60.3329 90.8879ZM134.167 100.478L134.404 100.33L134.224 100.042L133.987 100.19L134.167 100.478ZM134.458 100.096C134.392 99.9912 134.287 99.9193 134.167 99.8939L134.097 100.227C134.128 100.233 134.154 100.251 134.17 100.277L134.458 100.096ZM134.165 99.8936C134.044 99.8692 133.919 99.897 133.819 99.9669L134.013 100.246C134.039 100.227 134.07 100.221 134.099 100.227L134.165 99.8936ZM133.777 100.204L133.938 100.432L134.216 100.236L134.055 100.008L133.777 100.204ZM248.453 74.2525L248.45 73.9737L248.11 73.9774L248.113 74.2562L248.453 74.2525ZM248.278 73.8056C248.049 73.8085 247.861 73.9812 247.837 74.207L248.175 74.2431C248.181 74.1879 248.226 74.1462 248.282 74.1455L248.278 73.8056ZM247.988 74.3941L248.265 74.4234L248.301 74.0853L248.024 74.056L247.988 74.3941ZM238.765 34.1178L238.531 34.2684L238.715 34.5543L238.949 34.4037L238.765 34.1178ZM238.48 34.503C238.602 34.6944 238.849 34.7636 239.053 34.6647L238.905 34.3586C238.855 34.3827 238.796 34.3657 238.766 34.3197L238.48 34.503ZM239.132 34.4373L239.01 34.1864L238.704 34.3351L238.826 34.586L239.132 34.4373ZM145.246 21.4251L145.028 21.5988L145.24 21.8647L145.458 21.691L145.246 21.4251ZM145.001 21.8379C145.078 21.9344 145.192 21.9949 145.315 22.0053L145.343 21.6664C145.314 21.664 145.285 21.6491 145.267 21.6256L145.001 21.8379ZM145.315 22.0053C145.439 22.0156 145.559 21.9742 145.651 21.893L145.426 21.6381C145.402 21.6593 145.373 21.6689 145.343 21.6664L145.315 22.0053ZM145.665 21.6517L145.478 21.4442L145.226 21.6719L145.413 21.8794L145.665 21.6517ZM50.8378 37.1437L50.7091 37.391L51.0107 37.5479L51.1394 37.3006L50.8378 37.1437ZM50.7814 37.6203C50.8964 37.6801 51.0318 37.6874 51.1527 37.6399L51.0282 37.3234C50.9991 37.3349 50.9663 37.3332 50.9383 37.3186L50.7814 37.6203ZM51.1526 37.6399C51.2733 37.5925 51.3676 37.4951 51.4112 37.3732L51.091 37.2587C51.0804 37.2884 51.0575 37.312 51.0284 37.3234L51.1526 37.6399ZM51.3083 37.1559L51.0458 37.0621L50.9314 37.3822L51.1939 37.476L51.3083 37.1559ZM60.6557 90.8396L60.8696 90.6607L60.6515 90.3998L60.4376 90.5788L60.6557 90.8396ZM60.891 90.4212C60.8078 90.3217 60.6857 90.2631 60.556 90.2605L60.5492 90.6004C60.5804 90.601 60.61 90.6152 60.6302 90.6393L60.891 90.4212ZM60.5562 90.2605C60.4266 90.2578 60.3021 90.3112 60.2149 90.407L60.4663 90.6359C60.4874 90.6127 60.5176 90.5997 60.549 90.6004L60.5562 90.2605ZM60.2261 90.6471L60.4322 90.8348L60.6611 90.5835L60.455 90.3958L60.2261 90.6471ZM133.818 99.9674C124.977 106.217 114.184 109.888 102.532 109.888V110.228C114.256 110.228 125.117 106.534 134.014 100.245L133.818 99.9674ZM102.532 110.786C114.375 110.786 125.348 107.054 134.336 100.7L134.14 100.422C125.208 106.737 114.303 110.446 102.532 110.446V110.786ZM134.377 100.463L134.055 100.008L133.777 100.204L134.099 100.659L134.377 100.463ZM186.699 129.146C164.649 129.146 145.308 117.538 134.458 100.096L134.17 100.276C145.079 117.813 164.527 129.486 186.699 129.486V129.146ZM134.224 100.042L133.75 100.337L133.93 100.626L134.404 100.331L134.224 100.042ZM133.696 100.571C144.703 118.264 164.326 130.043 186.699 130.043V129.703C164.448 129.703 144.932 117.989 133.984 100.391L133.696 100.571ZM247.837 74.2072C244.571 105.086 218.444 129.146 186.699 129.146V129.486C218.62 129.486 244.891 105.293 248.175 74.2429L247.837 74.2072ZM186.699 130.043C218.909 130.043 245.416 105.632 248.729 74.3015L248.391 74.2658C245.096 105.425 218.733 129.703 186.699 129.703V130.043ZM248.578 74.1146L248.024 74.056L247.988 74.3941L248.542 74.4527L248.578 74.1146ZM268.614 53.2118C268.614 64.4998 259.532 73.6668 248.278 73.8056L248.282 74.1455C259.722 74.0045 268.954 64.6861 268.954 53.2118H268.614ZM248.11 73.9774L248.116 74.5349L248.456 74.5312L248.45 73.9737L248.11 73.9774ZM248.288 74.703C260.034 74.5582 269.511 64.9917 269.511 53.2118H269.171C269.171 64.8054 259.844 74.2205 248.284 74.3631L248.288 74.703ZM248.018 32.6164C259.393 32.6164 268.614 41.8372 268.614 53.2118H268.954C268.954 41.6495 259.581 32.2764 248.018 32.2764V32.6164ZM269.511 53.2118C269.511 41.3416 259.889 31.7188 248.018 31.7188V32.0588C259.701 32.0588 269.171 41.5293 269.171 53.2118H269.511ZM239.053 34.6646C241.762 33.3524 244.804 32.6164 248.018 32.6164V32.2764C244.752 32.2764 241.659 33.0245 238.905 34.3587L239.053 34.6646ZM248.018 31.7188C244.666 31.7188 241.49 32.4868 238.662 33.8569L238.81 34.1628C241.593 32.8147 244.718 32.0588 248.018 32.0588V31.7188ZM238.583 34.0839L238.826 34.5857L239.132 34.4376L238.889 33.9358L238.583 34.0839ZM186.699 6.18352C208.441 6.18352 227.548 17.4687 238.48 34.5032L238.766 34.3195C227.774 17.1918 208.561 5.84352 186.699 5.84352V6.18352ZM238.715 34.5544L239.184 34.2533L239 33.9672L238.531 34.2683L238.715 34.5544ZM239.235 34.0184C228.145 16.7376 208.759 5.286 186.699 5.286V5.626C208.639 5.626 227.919 17.0145 238.949 34.2021L239.235 34.0184ZM145.652 21.8921C156.536 12.1246 170.923 6.18352 186.699 6.18352V5.84352C170.836 5.84352 156.369 11.8177 145.425 21.639L145.652 21.8921ZM186.699 5.286C170.693 5.286 156.095 11.3145 145.052 21.224L145.279 21.4771C156.262 11.6214 170.78 5.626 186.699 5.626V5.286ZM145.039 21.4642L145.412 21.8792L145.665 21.6519L145.292 21.2369L145.039 21.4642ZM102.532 1.35643C119.73 1.35643 135.058 9.35548 145.001 21.8377L145.267 21.6258C135.262 9.06614 119.838 1.01643 102.532 1.01643V1.35643ZM145.24 21.8647L145.676 21.5173L145.464 21.2514L145.028 21.5988L145.24 21.8647ZM145.703 21.2784C135.597 8.59168 120.014 0.458906 102.532 0.458906V0.798906C119.906 0.798906 135.393 8.88102 145.437 21.4903L145.703 21.2784ZM51.4112 37.3731C58.9062 16.3796 78.9656 1.35643 102.532 1.35643V1.01643C78.8174 1.01643 58.6328 16.1343 51.091 37.2588L51.4112 37.3731ZM102.532 0.458906C78.5743 0.458906 58.1845 15.7319 50.5659 37.0713L50.8861 37.1856C58.4579 15.9772 78.7225 0.798906 102.532 0.798906V0.458906ZM50.6688 37.2885L51.1939 37.476L51.3082 37.1558L50.7831 36.9683L50.6688 37.2885ZM35.1953 33.823C40.8172 33.823 46.1177 35.1944 50.7814 37.6203L50.9383 37.3186C46.2273 34.8681 40.8731 33.483 35.1953 33.483V33.823ZM51.0107 37.5479L51.268 37.0533L50.9664 36.8964L50.7091 37.391L51.0107 37.5479ZM51.1956 36.824C46.407 34.3331 40.9648 32.9256 35.1953 32.9256V33.2656C40.9089 33.2656 46.2974 34.6594 51.0387 37.1257L51.1956 36.824ZM1.37206 67.6463C1.37206 48.9662 16.5153 33.823 35.1953 33.823V33.483C16.3275 33.483 1.03206 48.7785 1.03206 67.6463H1.37206ZM35.1953 32.9256C16.0195 32.9256 0.474531 48.4706 0.474531 67.6463H0.814531C0.814531 48.6583 16.2073 33.2656 35.1953 33.2656V32.9256ZM35.1953 101.469C16.5153 101.469 1.37206 86.3264 1.37206 67.6463H1.03206C1.03206 86.5141 16.3275 101.809 35.1953 101.809V101.469ZM0.474531 67.6463C0.474531 86.822 16.0195 102.366 35.1953 102.366V102.026C16.2073 102.026 0.814531 86.6343 0.814531 67.6463H0.474531ZM60.2149 90.407C54.0277 97.2042 45.1099 101.469 35.1953 101.469V101.809C45.2096 101.809 54.2174 97.5009 60.4663 90.6359L60.2149 90.407ZM35.1953 102.366C45.373 102.366 54.5285 97.9874 60.8786 91.0112L60.6272 90.7823C54.3388 97.6907 45.2733 102.026 35.1953 102.026V102.366ZM60.8673 90.771L60.455 90.3957L60.2261 90.6472L60.6384 91.0225L60.8673 90.771ZM102.532 109.888C85.8053 109.888 70.846 102.321 60.891 90.4212L60.6302 90.6393C70.6471 102.613 85.7004 110.228 102.532 110.228V109.888ZM60.6515 90.3998L60.2238 90.7575L60.4419 91.0184L60.8696 90.6607L60.6515 90.3998ZM60.2025 90.997C70.3209 103.091 85.5284 110.786 102.532 110.786V110.446C85.6333 110.446 70.5198 102.799 60.4633 90.7789L60.2025 90.997Z" fill="#030001" mask="url(#path-2-outside-1_1592_327)"></path>
    </g>
  </g>
  <defs>
    <clipPath id="clip0_1592_327">
      <rect width="270" height="130" fill="white"></rect>
    </clipPath>
  </defs>
</svg>
